<?xml version="1.0" encoding="utf-8"?>
<!-- Generator: Adobe Illustrator 15.0.0, SVG Export Plug-In . SVG Version: 6.00 Build 0)  -->
<!DOCTYPE svg PUBLIC "-//W3C//DTD SVG 1.1//EN" "http://www.w3.org/Graphics/SVG/1.1/DTD/svg11.dtd">
<svg version="1.1"
	 id="svg2" sodipodi:docname="No-Image-Placeholder.svg" inkscape:version="1.0 (4035a4fb49, 2020-05-01)" xmlns:dc="http://purl.org/dc/elements/1.1/" xmlns:cc="http://creativecommons.org/ns#" xmlns:rdf="http://www.w3.org/1999/02/22-rdf-syntax-ns#" xmlns:svg="http://www.w3.org/2000/svg" xmlns:sodipodi="http://sodipodi.sourceforge.net/DTD/sodipodi-0.dtd" xmlns:inkscape="http://www.inkscape.org/namespaces/inkscape"
	 xmlns="http://www.w3.org/2000/svg" xmlns:xlink="http://www.w3.org/1999/xlink" x="0px" y="0px" width="696.016px"
	 height="406.008px" viewBox="50.508 623.504 696.016 406.008" enable-background="new 50.508 623.504 696.016 406.008"
	 xml:space="preserve">
<g id="layer1" transform="translate(-399.13437,-122.79051)" inkscape:label="Layer 1" inkscape:groupmode="layer">
	<path id="rect1017" fill="#EEEEEE" d="M459.447,747.294h676.404c8.18,0,9.807,2.141,9.807,6.014v393.98
		c0,3.871-1.627,6.014-9.807,6.014H459.447c-8.179,0-9.805-2.143-9.805-6.014v-391.98
		C449.642,751.435,451.269,747.294,459.447,747.294z"/>
	<g>
		<polygon fill-rule="evenodd" clip-rule="evenodd" fill="#808080" points="778.705,879.857 793.705,909.857 715.205,1047.357 
			684.705,1047.357 		"/>
		<polygon fill-rule="evenodd" clip-rule="evenodd" fill="#979797" points="804.705,837.357 789.705,862.857 896.205,1047.357 
			926.705,1047.357 		"/>
		<polygon fill-rule="evenodd" clip-rule="evenodd" fill="#AAAAAA" points="750.705,1021.857 859.705,1021.857 874.205,1047.357 
			735.705,1047.357 		"/>
		<polygon fill-rule="evenodd" clip-rule="evenodd" fill="#C8C8C8" points="804.705,927.857 849.205,1004.357 761.705,1004.357 		
			"/>
	</g>
</g>
</svg>
