<?xml version="1.0" encoding="utf-8"?>
<!-- Generator: Adobe Illustrator 15.0.0, SVG Export Plug-In . SVG Version: 6.00 Build 0)  -->
<!DOCTYPE svg PUBLIC "-//W3C//DTD SVG 1.1//EN" "http://www.w3.org/Graphics/SVG/1.1/DTD/svg11.dtd">
<svg version="1.1"
	 id="svg2" sodipodi:docname="No-Image-Placeholder.svg" inkscape:version="1.0 (4035a4fb49, 2020-05-01)" xmlns:dc="http://purl.org/dc/elements/1.1/" xmlns:cc="http://creativecommons.org/ns#" xmlns:rdf="http://www.w3.org/1999/02/22-rdf-syntax-ns#" xmlns:svg="http://www.w3.org/2000/svg" xmlns:sodipodi="http://sodipodi.sourceforge.net/DTD/sodipodi-0.dtd" xmlns:inkscape="http://www.inkscape.org/namespaces/inkscape"
	 xmlns="http://www.w3.org/2000/svg" xmlns:xlink="http://www.w3.org/1999/xlink" x="0px" y="0px" width="696.016px"
	 height="406.008px" viewBox="50.508 623.504 696.016 406.008" enable-background="new 50.508 623.504 696.016 406.008"
	 xml:space="preserve">
<g id="layer1" transform="translate(-399.13437,-122.79051)" inkscape:label="Layer 1" inkscape:groupmode="layer">
	<path id="rect1017" fill="#EEEEEE" d="M459.447,747.294h676.404c8.18,0,9.807,2.141,9.807,6.014v393.98
		c0,3.871-1.627,6.014-9.807,6.014H459.447c-8.179,0-9.805-2.143-9.805-6.014v-391.98
		C449.642,751.435,451.269,747.294,459.447,747.294z"/>
	<g id="g1015" transform="translate(43.778173,191.04163)">
		<path id="rect1002" fill="#9F9F9F" stroke="#FFFFFF" stroke-width="0.25" d="M677.629,732.462l63.041-18.484
			c4.449-1.305,9.115,1.244,10.421,5.693l20.729,70.699c1.308,4.45-1.243,9.116-5.692,10.422l-63.041,18.484
			c-4.45,1.307-9.116-1.244-10.422-5.693l-20.73-70.699C670.629,738.432,673.179,733.766,677.629,732.462z"/>
		<g id="g1000" transform="rotate(16.320529,538.13563,-184.89727)">
			
				<linearGradient id="rect961_1_" gradientUnits="userSpaceOnUse" x1="3199.967" y1="1096.2874" x2="3198.3584" y2="1198.4646" gradientTransform="matrix(1 8.878696e-006 -8.878696e-006 1 -2194.3413 -499.9428)">
				<stop  offset="0" style="stop-color:#C2C2C2"/>
				<stop  offset="1" style="stop-color:#9F9F9F"/>
			</linearGradient>
			
				<path id="rect961" fill="url(#rect961_1_)" stroke="#FFFFFF" stroke-width="5" stroke-linecap="round" stroke-linejoin="round" d="
				M968.698,583.439l98.64,0c2.539,0,4.596,2.059,4.598,4.596l-0.001,106.774c0.002,2.539-2.058,4.597-4.596,4.596l-98.642,0.001
				c-2.537-0.001-4.596-2.057-4.595-4.597l0.001-106.774C964.102,585.497,966.157,583.44,968.698,583.439z"/>
			<g id="g875" transform="matrix(0.17265471,0,0,0.17265471,512.49324,-6.3296456)">
				
					<rect id="rect3338" x="2684.729" y="3477.025" fill="#CCCCCC" stroke="#FFFFFF" stroke-width="3" stroke-linecap="square" stroke-linejoin="round" width="491.097" height="449.991"/>
				
					<rect id="rect3342" x="2684.723" y="3477.026" fill="#FFFFFF" stroke="#FFFFFF" stroke-width="2" stroke-linecap="round" stroke-linejoin="round" width="491.103" height="210.003"/>
				
					<path id="path3344" sodipodi:nodetypes="cccccccc" inkscape:original-d="m 300,317.36255 38.46147,-53.53818 60.53097,-45.16084 15.88277,18.57394 13.61285,-38.68356 8.20133,-2.98188 13.3106,-28.2093 180,179.99979" inkscape:path-effect="#path-effect3346" inkscape:connector-curvature="0" fill="#CCCCCC" stroke="#FFFFFF" stroke-width="2" stroke-linecap="round" stroke-linejoin="round" d="
					M2714.723,3687.023l38.463-53.537l60.529-45.164l15.89,18.58l13.608-38.686l8.204-2.98l13.309-28.214l179.996,180"/>
				
					<path id="path3390-0" sodipodi:nodetypes="cscccccccccccc" inkscape:connector-curvature="0" fill="#B3B3B3" stroke="#FFFFFF" stroke-linecap="round" stroke-linejoin="round" d="
					M2864.725,3537.022c4.094,16.476,7.714,33.068,10.848,49.748c2.387,12.662,4.49,25.378,6.319,38.126l-22.064-7.159
					l-46.114-29.415l5.325,46.427l-1.611,24.789l10.047,30.369l73.188-11.753l84.062-21.131l-47.804-77.436l-9.696,14.933
					l-27.123-22.122L2864.725,3537.022z"/>
				
					<path id="path3358" sodipodi:nodetypes="cccccc" inkscape:original-d="m 419.99999,347.36252 81.89918,-74.42959 18.50574,-9.68009 23.6512,-44.18894 25.94388,-21.70121 179.99999,179.99979" inkscape:path-effect="#path-effect3360" inkscape:connector-curvature="0" fill="#CCCCCC" stroke="#FFFFFF" stroke-width="2" stroke-linecap="round" stroke-linejoin="round" d="
					M2834.725,3717.022l81.9-74.425l18.5-9.684l23.65-44.184l25.942-21.705l180.007,179.996"/>
				
					<path id="path3386" sodipodi:nodetypes="cccccssscccccc" inkscape:original-d="m 569.99999,197.36269 35.9388,80.91289 v 30.11038 30.11038 l 22.45864,19.46652 c 5.77311,-6.36416 13.54339,-11.40815 22.44431,-15.70477 13.00316,-6.27685 32.0432,-8.74899 47.17057,-13.6217 6.8762,-2.21491 12.68001,-4.81998 18.21343,-7.87277 1.55883,-0.86001 1.99765,-2.671 3.77424,-3.40107 h -30 l -40.52149,-40.55006 -29.85645,-48.91972 -10.25307,8.83886 z" inkscape:path-effect="#path-effect3388" inkscape:connector-curvature="0" fill="#B3B3B3" stroke="#FFFFFF" stroke-linecap="round" stroke-linejoin="round" d="
					M2984.722,3567.022l35.94,80.916l0,30.111l-0.002,30.105l22.461,19.467c6.522-6.448,14.149-11.781,22.443-15.701
					c14.828-7.006,31.341-9.365,47.173-13.624c6.425-1.728,12.904-3.855,18.212-7.867c1.348-1.031,2.618-2.169,3.777-3.405
					l-30.003,0.004l-40.518-40.554l-29.86-48.92l-10.255,8.837L2984.722,3567.022z"/>
				
					<path id="path3370" sodipodi:nodetypes="cssssscsssssc" inkscape:connector-curvature="0" fill="#FFFFFF" stroke="#FFFFFF" stroke-linecap="round" stroke-linejoin="round" d="
					M2834.727,3927.023c-0.419-9.602-8.823-17.614,17.123-30.669c31.83-16.027,125.893-35.89,152.153-59.993
					c19.43-17.818-70.418-37.663-55.021-59.068c6.983-9.706,59.035-19.973,82.139-30.275c21.912-9.764,15.141-19.804,31.405-29.977
					c15.712-9.823,68.354-19.767,72.192-30.026c-10.415,10.523-68.831,20.414-90.002,30.008
					c-22.337,10.124-21.466,19.923-49.432,29.479c-30.12,10.293-89.138,20.561-102.706,30.521
					c-28.411,20.861,46.862,42.598,16.208,60.002c-41.524,23.557-149.345,43.294-194.062,59.994
					c-30.902,11.547-28.407,17.753-30.001,30.002"/>
			</g>
		</g>
	</g>
</g>
</svg>
