<?xml version="1.0" encoding="utf-8"?>
<!-- Generator: Adobe Illustrator 15.0.0, SVG Export Plug-In . SVG Version: 6.00 Build 0)  -->
<!DOCTYPE svg PUBLIC "-//W3C//DTD SVG 1.1//EN" "http://www.w3.org/Graphics/SVG/1.1/DTD/svg11.dtd">
<svg version="1.1"
	 id="svg2" sodipodi:docname="No-Image-Placeholder.svg" inkscape:version="1.0 (4035a4fb49, 2020-05-01)" xmlns:dc="http://purl.org/dc/elements/1.1/" xmlns:cc="http://creativecommons.org/ns#" xmlns:rdf="http://www.w3.org/1999/02/22-rdf-syntax-ns#" xmlns:svg="http://www.w3.org/2000/svg" xmlns:sodipodi="http://sodipodi.sourceforge.net/DTD/sodipodi-0.dtd" xmlns:inkscape="http://www.inkscape.org/namespaces/inkscape"
	 xmlns="http://www.w3.org/2000/svg" xmlns:xlink="http://www.w3.org/1999/xlink" x="0px" y="0px" width="696.016px"
	 height="406.008px" viewBox="-145.003 0 696.016 406.008" enable-background="new -145.003 0 696.016 406.008"
	 xml:space="preserve">
<defs>
	
	<inkscape:path-effect  id="path-effect3414" effect="spiro" lpeversion="0" is_visible="true"></inkscape:path-effect>
	<inkscape:path-effect  id="path-effect3410" effect="spiro" lpeversion="0" is_visible="true"></inkscape:path-effect>
	<inkscape:path-effect  id="path-effect3406" effect="spiro" lpeversion="0" is_visible="true"></inkscape:path-effect>
	<inkscape:path-effect  id="path-effect3402" effect="spiro" lpeversion="0" is_visible="true"></inkscape:path-effect>
	<inkscape:path-effect  id="path-effect3398" effect="spiro" lpeversion="0" is_visible="true"></inkscape:path-effect>
	<inkscape:path-effect  id="path-effect3392" effect="spiro" lpeversion="0" is_visible="true"></inkscape:path-effect>
	<inkscape:path-effect  id="path-effect3388" effect="spiro" lpeversion="0" is_visible="true"></inkscape:path-effect>
	<inkscape:path-effect  id="path-effect3372" effect="spiro" lpeversion="0" is_visible="true"></inkscape:path-effect>
	<inkscape:path-effect  id="path-effect3368" effect="spiro" lpeversion="0" is_visible="true"></inkscape:path-effect>
	<inkscape:path-effect  id="path-effect3364" effect="spiro" lpeversion="0" is_visible="true"></inkscape:path-effect>
	<inkscape:path-effect  id="path-effect3360" effect="spiro" lpeversion="0" is_visible="true"></inkscape:path-effect>
	<inkscape:path-effect  id="path-effect3346" effect="spiro" lpeversion="0" is_visible="true"></inkscape:path-effect>
	<inkscape:path-effect  id="path-effect3392-8" effect="spiro" lpeversion="0" is_visible="true"></inkscape:path-effect>
</defs>
<sodipodi:namedview  units="px" id="base" inkscape:window-y="42" inkscape:window-x="0" inkscape:window-height="1004" inkscape:window-width="1920" fit-margin-bottom="0" fit-margin-right="0" inkscape:guide-bbox="true" inkscape:object-nodes="true" inkscape:current-layer="layer1" inkscape:document-units="px" inkscape:pageshadow="2" inkscape:pageopacity="0.0" inkscape:document-rotation="0" inkscape:window-maximized="1" inkscape:snap-smooth-nodes="true" fit-margin-left="0" fit-margin-top="0" showguides="false" showgrid="false" inkscape:cy="109.10202" inkscape:cx="148.40044" inkscape:zoom="0.7071068" borderopacity="1.0" bordercolor="#666666" pagecolor="#ffffff">
	<inkscape:grid  type="xygrid" originy="-510.42818" originx="-399.13435" id="grid3336"></inkscape:grid>
	<sodipodi:guide  id="guide3375" orientation="0,1" position="-117.13437,-25.564321"></sodipodi:guide>
	<sodipodi:guide  id="guide3377" orientation="0,1" position="-114.13437,-23.564321"></sodipodi:guide>
	<sodipodi:guide  id="guide3380" orientation="0,1" position="-121.13437,-27.564321"></sodipodi:guide>
	<sodipodi:guide  id="guide3382" orientation="0,1" position="-114.13437,-22.564321"></sodipodi:guide>
	<sodipodi:guide  id="guide3384" orientation="0,1" position="-114.13437,-21.564321"></sodipodi:guide>
	<sodipodi:guide  id="guide3416" orientation="-2,0.5" position="-115.13437,-25.564311"></sodipodi:guide>
	<sodipodi:guide  id="guide3420" orientation="-2,0.5" position="-115.13437,-25.564311"></sodipodi:guide>
	<sodipodi:guide  id="guide4180" orientation="0.24382204,-0.96981999" position="206.80442,220.41193"></sodipodi:guide>
	<sodipodi:guide  id="guide4182" orientation="1,0" position="86.804424,280.52227"></sodipodi:guide>
	<sodipodi:guide  id="guide4186" orientation="1,0" position="206.80442,250.52231"></sodipodi:guide>
	<sodipodi:guide  id="guide4188" orientation="-0.24382199,0.96982" position="206.80442,190.30156"></sodipodi:guide>
</sodipodi:namedview>
<g id="layer1" transform="translate(-399.13437,-122.79051)" inkscape:label="Layer 1" inkscape:groupmode="layer">
	<path id="rect1017" fill="#EEEEEE" d="M268.935,122.79h666.405c8.18,0,14.807,3.141,14.807,7.014v391.98
		c0,3.871-6.627,7.014-14.807,7.014H268.935c-8.178,0-14.804-3.143-14.804-7.014v-391.98
		C254.131,125.931,260.758,122.79,268.935,122.79z"/>
	<g id="g1015" transform="translate(43.778173,191.04163)">
		<path id="rect1002" fill="#9F9F9F" stroke="#FFFFFF" stroke-width="0.25" d="M479.117,56.958l63.041-18.485
			c4.449-1.305,9.115,1.244,10.421,5.694l20.729,70.699c1.307,4.45-1.244,9.116-5.693,10.421l-63.041,18.485
			c-4.45,1.306-9.116-1.244-10.422-5.694l-20.73-70.699C472.117,62.928,474.667,58.262,479.117,56.958z"/>
		<g id="g1000" transform="rotate(16.320529,538.13563,-184.89727)">
			
				<linearGradient id="rect961_1_" gradientUnits="userSpaceOnUse" x1="2192.4512" y1="-343.7177" x2="2190.8425" y2="-445.8949" gradientTransform="matrix(0.9597 -0.281 -0.281 -0.9597 -1562.2479 286.4441)">
				<stop  offset="0" style="stop-color:#C2C2C2"/>
				<stop  offset="1" style="stop-color:#9F9F9F"/>
			</linearGradient>
			
				<path id="rect961" fill="url(#rect961_1_)" stroke="#FFFFFF" stroke-width="5" stroke-linecap="round" stroke-linejoin="round" d="
				M588.361-9.062l98.64,0.001c2.539-0.001,4.596,2.058,4.598,4.596l-0.001,106.773c0.001,2.539-2.058,4.597-4.596,4.596
				l-98.642,0.001c-2.537-0.001-4.596-2.058-4.595-4.598l0.001-106.773C583.765-7.003,585.821-9.061,588.361-9.062z"/>
			<g id="g875" transform="matrix(0.17265471,0,0,0.17265471,512.49324,-6.3296456)">
				
					<rect id="rect3338" x="481.861" y="45.326" fill="#CCCCCC" stroke="#FFFFFF" stroke-width="3" stroke-linecap="square" stroke-linejoin="round" width="491.099" height="449.99"/>
				
					<rect id="rect3342" x="481.854" y="45.325" fill="#FFFFFF" stroke="#FFFFFF" stroke-width="2" stroke-linecap="round" stroke-linejoin="round" width="491.105" height="209.999"/>
				
					<path id="path3344" inkscape:path-effect="#path-effect3346" inkscape:original-d="m 300,317.36255 38.46147,-53.53818 60.53097,-45.16084 15.88277,18.57394 13.61285,-38.68356 8.20133,-2.98188 13.3106,-28.2093 180,179.99979" sodipodi:nodetypes="cccccccc" inkscape:connector-curvature="0" fill="#CCCCCC" stroke="#FFFFFF" stroke-width="2" stroke-linecap="round" stroke-linejoin="round" d="
					M511.854,255.324l38.463-53.537l60.528-45.164l15.889,18.577l13.61-38.681l8.202-2.985l13.311-28.209l179.996,180"/>
				
					<path id="path3390-0" sodipodi:nodetypes="cscccccccccccc" inkscape:connector-curvature="0" fill="#B3B3B3" stroke="#FFFFFF" stroke-linecap="round" stroke-linejoin="round" d="
					M661.856,105.322c4.094,16.476,7.714,33.068,10.848,49.748c2.387,12.662,4.49,25.378,6.319,38.126l-22.064-7.16l-46.115-29.417
					l5.326,46.429l-1.611,24.789l10.048,30.372l73.188-11.753l84.061-21.134l-47.805-77.436l-9.696,14.933l-27.123-22.122
					L661.856,105.322z"/>
				
					<path id="path3358" inkscape:path-effect="#path-effect3360" inkscape:original-d="m 419.99999,347.36252 81.89918,-74.42959 18.50574,-9.68009 23.6512,-44.18894 25.94388,-21.70121 179.99999,179.99979" sodipodi:nodetypes="cccccc" inkscape:connector-curvature="0" fill="#CCCCCC" stroke="#FFFFFF" stroke-width="2" stroke-linecap="round" stroke-linejoin="round" d="
					M631.856,285.322l81.899-74.428l18.506-9.68l23.648-44.19l25.942-21.703L961.855,315.32"/>
				
					<path id="path3386" inkscape:path-effect="#path-effect3388" inkscape:original-d="m 569.99999,197.36269 35.9388,80.91289 v 30.11038 30.11038 l 22.45864,19.46652 c 5.77311,-6.36416 13.54339,-11.40815 22.44431,-15.70477 13.00316,-6.27685 32.0432,-8.74899 47.17057,-13.6217 6.8762,-2.21491 12.68001,-4.81998 18.21343,-7.87277 1.55883,-0.86001 1.99765,-2.671 3.77424,-3.40107 h -30 l -40.52149,-40.55006 -29.85645,-48.91972 -10.25307,8.83886 z" sodipodi:nodetypes="cccccssscccccc" inkscape:connector-curvature="0" fill="#B3B3B3" stroke="#FFFFFF" stroke-linecap="round" stroke-linejoin="round" d="
					M781.853,135.322l35.94,80.916l0,30.111l-0.002,30.105l22.462,19.467c6.522-6.448,14.149-11.781,22.443-15.701
					c14.828-7.006,31.341-9.363,47.173-13.624c6.425-1.728,12.904-3.855,18.211-7.87c1.349-1.029,2.62-2.164,3.777-3.404
					l-30.003,0.004l-40.518-40.554l-29.858-48.915l-10.255,8.837L781.853,135.322z"/>
				
					<path id="path3370" sodipodi:nodetypes="cssssscsssssc" inkscape:connector-curvature="0" fill="#FFFFFF" stroke="#FFFFFF" stroke-linecap="round" stroke-linejoin="round" d="
					M631.858,495.324c-0.419-9.602-8.823-17.611,17.123-30.669c31.83-16.027,125.893-35.89,152.153-59.99
					c19.428-17.824-70.419-37.666-55.021-59.069c6.983-9.706,59.035-19.973,82.144-30.276c21.91-9.769,15.141-19.804,31.405-29.977
					c15.712-9.823,68.352-19.773,72.192-30.026c-10.415,10.523-68.832,20.408-90.004,30.002
					c-22.335,10.129-21.464,19.929-49.431,29.485c-30.12,10.293-89.14,20.555-102.708,30.516
					c-28.409,20.866,46.864,42.603,16.208,60.002c-41.523,23.562-149.344,43.296-194.066,59.998
					c-30.903,11.545-28.407,17.754-30.001,30.002"/>
			</g>
		</g>
	</g>
	<g enable-background="new    ">
		<path fill="#999999" d="M526.432,387.807l10.72,18.591v-18.591h3.583v24.317h-3.904l-10.848-18.56v18.56h-3.583v-24.317H526.432z"
			/>
		<path fill="#999999" d="M556.094,387.359c6.272,0,10.496,5.057,10.496,12.607c0,7.55-4.224,12.605-10.496,12.605
			c-6.238,0-10.463-5.088-10.463-12.605C545.631,392.414,549.823,387.359,556.094,387.359z M556.126,409.31
			c4,0,6.496-3.616,6.496-9.344c0-5.76-2.496-9.344-6.496-9.344c-4.032,0-6.526,3.614-6.526,9.344
			C549.599,405.726,552.094,409.31,556.126,409.31z"/>
		<path fill="#999999" d="M587.294,387.807l5.984,20.255l6.047-20.255h5.376v24.317h-3.488v-20.189l-6.015,20.189h-3.841
			l-6.017-20.189v20.189h-3.456v-24.317H587.294z"/>
		<path fill="#999999" d="M624.574,397.918v3.231h-9.76v7.744h10.942v3.231h-14.719v-24.318h14.397v3.23h-10.623v6.881H624.574
			L624.574,397.918z"/>
		<path fill="#999999" d="M636.766,387.807c4.159,0,6.688,0.8,8.672,2.688c2.336,2.271,3.552,5.534,3.552,9.471
			c0,4.257-1.472,7.841-4.063,9.951c-1.952,1.633-4.225,2.209-8.446,2.209h-6.146v-24.318L636.766,387.807L636.766,387.807z
			 M637.469,408.894c2.721,0,4.415-0.641,5.663-2.145c1.248-1.474,1.952-3.903,1.952-6.849c0-3.231-0.864-5.694-2.495-7.198
			c-1.377-1.248-2.848-1.664-5.952-1.664h-2.526v17.854L637.469,408.894L637.469,408.894z"/>
		<path fill="#999999" d="M653.853,412.125v-24.316h3.81v24.316H653.853z"/>
		<path fill="#999999" d="M673.468,387.744l8.32,24.381h-3.904l-1.792-5.693h-8.862l-1.822,5.693h-3.872l8.287-24.381H673.468z
			 M671.645,392.255l-3.425,10.94h6.881L671.645,392.255z"/>
	</g>
	<g enable-background="new    ">
		<path fill="#999999" d="M523.581,427.744l8.319,24.381h-3.904l-1.792-5.693h-8.863l-1.823,5.693h-3.872l8.287-24.381H523.581z
			 M521.757,432.255l-3.424,10.94h6.879L521.757,432.255z"/>
		<path fill="#999999" d="M537.182,427.807l6.335,19.999l6.305-19.999h3.936l-8.383,24.383h-3.904l-8.317-24.383H537.182z"/>
		<path fill="#999999" d="M566.972,427.744l8.319,24.381h-3.904l-1.792-5.693h-8.861l-1.824,5.693h-3.872l8.287-24.381H566.972z
			 M565.149,432.255l-3.424,10.94h6.879L565.149,432.255z"/>
		<path fill="#999999" d="M579.132,452.125v-24.316h3.809v24.316H579.132z"/>
		<path fill="#999999" d="M593.148,427.807v21.087h10.464v3.23h-14.334v-24.317H593.148z"/>
		<path fill="#999999" d="M617.148,427.744l8.317,24.381h-3.902l-1.792-5.693h-8.862l-1.824,5.693h-3.871l8.287-24.381H617.148z
			 M615.325,432.255l-3.425,10.94h6.88L615.325,432.255z"/>
		<path fill="#999999" d="M635.836,427.807c3.231,0,4.928,0.288,6.271,1.12c1.535,0.928,2.367,2.56,2.367,4.672
			c0,2.943-1.345,4.703-4.224,5.631c3.711,0.864,5.503,2.912,5.503,6.271c0,2.496-1.15,4.576-3.167,5.631
			c-1.377,0.736-3.041,0.992-6.176,0.992h-7.072v-24.317H635.836z M636.573,437.918c2.751,0,4.158-1.278,4.158-3.84
			c0-2.271-1.186-3.168-4.256-3.168h-3.425v7.008H636.573z M636.795,449.022c2.177,0,3.36-0.256,4.032-0.896
			c0.704-0.642,1.056-1.633,1.056-2.943c0-2.912-1.566-4.225-5.021-4.225h-3.81v8.063L636.795,449.022L636.795,449.022z"/>
		<path fill="#999999" d="M654.299,427.807v21.087h10.464v3.23h-14.336v-24.317H654.299z"/>
		<path fill="#999999" d="M682.364,437.918v3.231h-9.761v7.744h10.942v3.231h-14.719v-24.318h14.397v3.23h-10.623v6.881H682.364
			L682.364,437.918z"/>
	</g>
</g>
</svg>
