<?xml version="1.0" encoding="utf-8"?>
<!-- Generator: Adobe Illustrator 15.0.0, SVG Export Plug-In . SVG Version: 6.00 Build 0)  -->
<!DOCTYPE svg PUBLIC "-//W3C//DTD SVG 1.1//EN" "http://www.w3.org/Graphics/SVG/1.1/DTD/svg11.dtd">
<svg version="1.1"
	 id="svg2" sodipodi:docname="No-Image-Placeholder.svg" inkscape:version="1.0 (4035a4fb49, 2020-05-01)" xmlns:dc="http://purl.org/dc/elements/1.1/" xmlns:cc="http://creativecommons.org/ns#" xmlns:rdf="http://www.w3.org/1999/02/22-rdf-syntax-ns#" xmlns:svg="http://www.w3.org/2000/svg" xmlns:sodipodi="http://sodipodi.sourceforge.net/DTD/sodipodi-0.dtd" xmlns:inkscape="http://www.inkscape.org/namespaces/inkscape"
	 xmlns="http://www.w3.org/2000/svg" xmlns:xlink="http://www.w3.org/1999/xlink" x="0px" y="0px" width="306.142px"
	 height="306.142px" viewBox="49.932 49.932 306.142 306.142" enable-background="new 49.932 49.932 306.142 306.142"
	 xml:space="preserve">
<defs  display="none">
	
	<inkscape:path-effect  effect="spiro" id="path-effect3414" is_visible="true" lpeversion="0"></inkscape:path-effect>
	<inkscape:path-effect  effect="spiro" id="path-effect3410" is_visible="true" lpeversion="0"></inkscape:path-effect>
	<inkscape:path-effect  effect="spiro" id="path-effect3406" is_visible="true" lpeversion="0"></inkscape:path-effect>
	<inkscape:path-effect  effect="spiro" id="path-effect3402" is_visible="true" lpeversion="0"></inkscape:path-effect>
	<inkscape:path-effect  effect="spiro" id="path-effect3398" is_visible="true" lpeversion="0"></inkscape:path-effect>
	<inkscape:path-effect  effect="spiro" id="path-effect3392" is_visible="true" lpeversion="0"></inkscape:path-effect>
	<inkscape:path-effect  effect="spiro" id="path-effect3388" is_visible="true" lpeversion="0"></inkscape:path-effect>
	<inkscape:path-effect  effect="spiro" id="path-effect3372" is_visible="true" lpeversion="0"></inkscape:path-effect>
	<inkscape:path-effect  effect="spiro" id="path-effect3368" is_visible="true" lpeversion="0"></inkscape:path-effect>
	<inkscape:path-effect  effect="spiro" id="path-effect3364" is_visible="true" lpeversion="0"></inkscape:path-effect>
	<inkscape:path-effect  effect="spiro" id="path-effect3360" is_visible="true" lpeversion="0"></inkscape:path-effect>
	<inkscape:path-effect  effect="spiro" id="path-effect3346" is_visible="true" lpeversion="0"></inkscape:path-effect>
	<inkscape:path-effect  effect="spiro" id="path-effect3392-8" is_visible="true" lpeversion="0"></inkscape:path-effect>
</defs>
<sodipodi:namedview  units="px" id="base" inkscape:pageopacity="0.0" inkscape:pageshadow="2" inkscape:document-units="px" inkscape:current-layer="layer1" inkscape:object-nodes="true" inkscape:guide-bbox="true" fit-margin-right="0" fit-margin-bottom="0" inkscape:window-width="1920" inkscape:window-height="1004" inkscape:window-x="0" inkscape:window-y="42" inkscape:snap-smooth-nodes="true" inkscape:window-maximized="1" inkscape:document-rotation="0" pagecolor="#ffffff" bordercolor="#666666" borderopacity="1.0" inkscape:zoom="0.7071068" inkscape:cx="148.40044" inkscape:cy="109.10202" showgrid="false" showguides="false" fit-margin-top="0" fit-margin-left="0">
	<inkscape:grid  type="xygrid" originx="-399.13435" originy="-510.42818" id="grid3336"></inkscape:grid>
	<sodipodi:guide  id="guide3375" position="-117.13437,-25.564321" orientation="0,1"></sodipodi:guide>
	<sodipodi:guide  id="guide3377" position="-114.13437,-23.564321" orientation="0,1"></sodipodi:guide>
	<sodipodi:guide  id="guide3380" position="-121.13437,-27.564321" orientation="0,1"></sodipodi:guide>
	<sodipodi:guide  id="guide3382" position="-114.13437,-22.564321" orientation="0,1"></sodipodi:guide>
	<sodipodi:guide  id="guide3384" position="-114.13437,-21.564321" orientation="0,1"></sodipodi:guide>
	<sodipodi:guide  id="guide3416" position="-115.13437,-25.564311" orientation="-2,0.5"></sodipodi:guide>
	<sodipodi:guide  id="guide3420" position="-115.13437,-25.564311" orientation="-2,0.5"></sodipodi:guide>
	<sodipodi:guide  id="guide4180" position="206.80442,220.41193" orientation="0.24382204,-0.96981999"></sodipodi:guide>
	<sodipodi:guide  id="guide4182" position="86.804424,280.52227" orientation="1,0"></sodipodi:guide>
	<sodipodi:guide  id="guide4186" position="206.80442,250.52231" orientation="1,0"></sodipodi:guide>
	<sodipodi:guide  id="guide4188" position="206.80442,190.30156" orientation="-0.24382199,0.96982"></sodipodi:guide>
</sodipodi:namedview>
<g id="layer1" transform="translate(-399.13437,-122.79051)" inkscape:label="Layer 1" inkscape:groupmode="layer">
	<path id="rect1017" fill="#EEEEEE" d="M455.58,172.723h293.115c3.596,0,6.514,2.367,6.514,5.293v295.567
		c0,2.906-2.918,5.281-6.514,5.281H455.58c-3.596,0-6.514-2.375-6.514-5.281V178.016C449.067,175.09,451.985,172.723,455.58,172.723
		z"/>
	<g id="g1015" transform="translate(43.778173,191.04163)">
		<path id="rect1002" fill="#9F9F9F" stroke="#FFFFFF" stroke-width="0.25" d="M479.117,117.831l63.041-18.485
			c4.449-1.305,9.115,1.244,10.421,5.694l20.729,70.699c1.308,4.449-1.243,9.116-5.692,10.422l-63.041,18.485
			c-4.45,1.306-9.116-1.244-10.422-5.694l-20.73-70.7C472.117,123.802,474.667,119.136,479.117,117.831z"/>
		<g id="g1000" transform="rotate(16.320529,538.13563,-184.89727)">
			
				<linearGradient id="rect961_1_" gradientUnits="userSpaceOnUse" x1="2836.7295" y1="562.2075" x2="2835.1208" y2="664.3846" gradientTransform="matrix(1 8.878696e-006 -8.878696e-006 1 -2194.3413 -499.9428)">
				<stop  offset="0" style="stop-color:#C2C2C2"/>
				<stop  offset="1" style="stop-color:#9F9F9F"/>
			</linearGradient>
			
				<path id="rect961" fill="url(#rect961_1_)" stroke="#FFFFFF" stroke-width="5" stroke-linecap="round" stroke-linejoin="round" d="
				M605.467,49.359l98.64,0.001c2.539-0.001,4.596,2.058,4.598,4.596l-0.001,106.774c0.001,2.538-2.058,4.596-4.596,4.596l-98.642,0
				c-2.537-0.002-4.596-2.057-4.595-4.597l0.001-106.774C600.871,51.418,602.927,49.36,605.467,49.359z"/>
			<g id="g875" transform="matrix(0.17265471,0,0,0.17265471,512.49324,-6.3296456)">
				
					<rect id="rect3338" x="580.935" y="383.691" fill="#CCCCCC" stroke="#FFFFFF" stroke-width="3" stroke-linecap="square" stroke-linejoin="round" width="491.098" height="449.989"/>
				
					<rect id="rect3342" x="580.928" y="383.69" fill="#FFFFFF" stroke="#FFFFFF" stroke-width="2" stroke-linecap="round" stroke-linejoin="round" width="491.104" height="210.003"/>
				
					<path id="path3344" sodipodi:nodetypes="cccccccc" inkscape:original-d="m 300,317.36255 38.46147,-53.53818 60.53097,-45.16084 15.88277,18.57394 13.61285,-38.68356 8.20133,-2.98188 13.3106,-28.2093 180,179.99979" inkscape:path-effect="#path-effect3346" inkscape:connector-curvature="0" fill="#CCCCCC" stroke="#FFFFFF" stroke-width="2" stroke-linecap="round" stroke-linejoin="round" d="
					M610.929,593.687l38.464-53.535l60.528-45.164l15.888,18.575l13.61-38.681l8.202-2.985l13.311-28.209l179.996,180"/>
				
					<path id="path3390-0" sodipodi:nodetypes="cscccccccccccc" inkscape:connector-curvature="0" fill="#B3B3B3" stroke="#FFFFFF" stroke-linecap="round" stroke-linejoin="round" d="
					M760.932,443.686c4.094,16.476,7.714,33.068,10.848,49.748c2.387,12.662,4.49,25.378,6.319,38.126l-22.064-7.16l-46.115-29.417
					l5.326,46.429l-1.612,24.789l10.048,30.372l73.188-11.753l84.061-21.134l-47.805-77.436l-9.696,14.933l-27.123-22.122
					L760.932,443.686z"/>
				
					<path id="path3358" sodipodi:nodetypes="cccccc" inkscape:original-d="m 419.99999,347.36252 81.89918,-74.42959 18.50574,-9.68009 23.6512,-44.18894 25.94388,-21.70121 179.99999,179.99979" inkscape:path-effect="#path-effect3360" inkscape:connector-curvature="0" fill="#CCCCCC" stroke="#FFFFFF" stroke-width="2" stroke-linecap="round" stroke-linejoin="round" d="
					M730.932,623.686l81.9-74.427l18.501-9.678l23.648-44.19l25.942-21.703l180.007,179.996"/>
				
					<path id="path3386" sodipodi:nodetypes="cccccssscccccc" inkscape:original-d="m 569.99999,197.36269 35.9388,80.91289 v 30.11038 30.11038 l 22.45864,19.46652 c 5.77311,-6.36416 13.54339,-11.40815 22.44431,-15.70477 13.00316,-6.27685 32.0432,-8.74899 47.17057,-13.6217 6.8762,-2.21491 12.68001,-4.81998 18.21343,-7.87277 1.55883,-0.86001 1.99765,-2.671 3.77424,-3.40107 h -30 l -40.52149,-40.55006 -29.85645,-48.91972 -10.25307,8.83886 z" inkscape:path-effect="#path-effect3388" inkscape:connector-curvature="0" fill="#B3B3B3" stroke="#FFFFFF" stroke-linecap="round" stroke-linejoin="round" d="
					M880.929,473.686l35.94,80.916l0,30.111l-0.001,30.108l22.46,19.462c6.522-6.448,14.149-11.781,22.444-15.695
					c14.828-7.006,31.341-9.365,47.173-13.624c6.425-1.728,12.902-3.86,18.211-7.872c1.35-1.026,2.62-2.164,3.777-3.404
					l-30.003,0.004l-40.518-40.554l-29.858-48.915l-10.255,8.837L880.929,473.686z"/>
				
					<path id="path3370" sodipodi:nodetypes="cssssscsssssc" inkscape:connector-curvature="0" fill="#FFFFFF" stroke="#FFFFFF" stroke-linecap="round" stroke-linejoin="round" d="
					M730.933,833.682c-0.419-9.602-8.822-17.608,17.124-30.663c31.83-16.027,125.892-35.896,152.152-59.993
					c19.43-17.818-70.42-37.668-55.021-59.069c6.983-9.704,59.035-19.971,82.14-30.272c21.91-9.769,15.141-19.804,31.405-29.977
					c15.712-9.823,68.352-19.773,72.192-30.026c-10.415,10.523-68.832,20.408-90.004,30.002
					c-22.335,10.129-21.464,19.929-49.431,29.485c-30.12,10.293-89.14,20.555-102.708,30.516
					c-28.409,20.866,46.863,42.601,16.208,60.004c-41.524,23.557-149.345,43.294-194.062,59.994
					c-30.902,11.547-28.409,17.748-30.001,30.002"/>
			</g>
		</g>
	</g>
</g>
</svg>
